# xmcd
#
# Track frame offsets:
#	150
#	15925
#	30768
#	46445
#	63276
#	77146
#	95007
#	113736
#	129947
#	151787
#	170069
#	189613
#
# Disc length: 2759 seconds
#
# Revision: 0
# Processed by: cddbd v1.5.2PL0 Copyright (c) Steve Scherf et al.
# Submitted via: dBpowerAMP V4.0
#
DISCID=880ac50c
DTITLE=Various Artist - debu hep beraber
DYEAR=2008
DGENRE=Vocal
TTITLE0=Track01 - mustafa daood
TTITLE1=Track02 - mustafa daood
TTITLE2=Track03 - mustafa daood
TTITLE3=Track04 - mustafa daood
TTITLE4=Track05 - mustafa daood
TTITLE5=Track06 - mustafa daood
TTITLE6=Track07 - mustafa daood
TTITLE7=Track08 - mustafa daood
TTITLE8=Track09 - mustafa daood
TTITLE9=Track10 - mustafa daood
TTITLE10=Track11 - mustafa daood
TTITLE11=Track12 - mustafa daood
EXTD=a
EXTT0=
EXTT1=
EXTT2=
EXTT3=
EXTT4=
EXTT5=
EXTT6=
EXTT7=
EXTT8=
EXTT9=
EXTT10=
EXTT11=
PLAYORDER=
